<svg width="71" height="50" viewBox="0 0 71 50" fill="none" xmlns="http://www.w3.org/2000/svg">
<g filter="url(#filter0_dd_544602_156)">
<path d="M8.79189 38.373C9.03736 38.6465 9.16811 38.9891 9.16126 39.3407C9.17379 39.57 9.12885 39.7989 9.02977 40.0105C8.93069 40.2221 8.78001 40.4109 8.5889 40.563C8.11204 40.8872 7.52126 41.0457 6.92505 41.0093H4V34.8769H6.86515C7.43071 34.8431 7.99178 34.9871 8.45246 35.2844C8.63749 35.4238 8.78401 35.6 8.88045 35.7991C8.97689 35.9982 9.02062 36.2148 9.00819 36.4317C9.025 36.77 8.90698 37.1026 8.67542 37.3694C8.4531 37.6131 8.14588 37.782 7.80356 37.8488C8.19162 37.9125 8.54189 38.0983 8.79189 38.373ZM5.36103 37.4473H6.58562C6.86394 37.4659 7.14036 37.3935 7.3643 37.2436C7.45625 37.1686 7.52779 37.0755 7.57337 36.9716C7.61896 36.8677 7.63737 36.7558 7.62719 36.6445C7.63583 36.5335 7.61704 36.4222 7.57215 36.3186C7.52727 36.215 7.45742 36.1217 7.36763 36.0453C7.13699 35.8911 6.85198 35.8177 6.56566 35.8386H5.36103V37.4473ZM7.4841 39.799C7.58239 39.7222 7.65965 39.6261 7.70986 39.518C7.76008 39.4099 7.7819 39.2928 7.77361 39.1759C7.78111 39.0576 7.7583 38.9394 7.70694 38.8303C7.65559 38.7212 7.57707 38.6242 7.47745 38.5468C7.23785 38.3869 6.94319 38.3084 6.64552 38.3251H5.36103V40.0117H6.66216C6.95502 40.0269 7.24492 39.9519 7.4841 39.799Z" fill="#8E8F99"/>
<path d="M14.6487 41.0093L13.0547 38.6127H12.4557V41.0093H11.0847V34.8769H13.6803C14.3346 34.8358 14.9814 35.0224 15.4873 35.3982C15.8501 35.731 16.0689 36.1696 16.1043 36.6348C16.1397 37.1001 15.9893 37.5614 15.6803 37.9357C15.36 38.2659 14.9226 38.4861 14.4424 38.5588L16.1395 41.0093H14.6487ZM12.4557 37.7769H13.5772C14.3558 37.7769 14.7452 37.4673 14.7452 36.8482C14.7531 36.7217 14.7318 36.5952 14.6825 36.4766C14.6333 36.358 14.5571 36.2499 14.459 36.1591C14.2129 35.9749 13.896 35.8855 13.5772 35.9105H12.4424L12.4557 37.7769Z" fill="#8E8F99"/>
<path d="M22.1426 39.7752H19.4106L18.928 41.0094H17.4905L19.9996 34.9459H21.5536L24.0527 41.0094H22.6151L22.1426 39.7752ZM21.7766 38.8465L20.7782 36.2581L19.7799 38.8465H21.7766Z" fill="#8E8F99"/>
<path d="M31.5234 41.0094H30.1624L27.1109 36.8392V41.0094H25.7532V34.877H27.1109L30.1624 39.0711V34.877H31.5234V41.0094Z" fill="#8E8F99"/>
<path d="M39.2903 39.5415C39.0089 40.0045 38.5801 40.3811 38.059 40.6229C37.4666 40.8923 36.8091 41.0251 36.1456 41.0094H33.723V34.877H36.1456C36.8079 34.8614 37.4646 34.991 38.059 35.2545C38.58 35.4908 39.0092 35.8637 39.2903 36.324C39.5704 36.8227 39.7164 37.3738 39.7164 37.9327C39.7164 38.4916 39.5704 39.0427 39.2903 39.5415ZM37.7329 39.3947C38.1213 38.9873 38.3349 38.4681 38.3349 37.9312C38.3349 37.3943 38.1213 36.8752 37.7329 36.4678C37.2634 36.0988 36.6511 35.9114 36.0291 35.9465H35.0841V39.9159H36.0291C36.6511 39.951 37.2634 39.7637 37.7329 39.3947Z" fill="#8E8F99"/>
<path d="M22.9945 0.766724C22.9945 0.766724 40.5614 6.73736 40.1887 15.3773V29.9908C40.1887 29.9908 22.6351 24.0172 23.0012 15.3773L22.9945 0.766724Z" fill="#8E8F99"/>
<path d="M55.8389 26.5694C59.1565 24.5139 62.9941 23.2408 67 22.8666V18.292C62.3842 19.8935 58.4686 22.7975 55.8389 26.5694Z" fill="#8E8F99"/>
<path d="M53.8456 27.9478C56.5611 23.0253 61.2686 19.2268 67 17.3336V4.1521C67 4.1521 41.9823 12.6572 42.5114 24.9609V45.7668C42.5114 45.7668 43.6262 45.3863 45.3799 44.6733C45.3799 44.0083 45.3799 43.3372 45.4598 42.6631C45.9776 36.9511 48.9939 31.6581 53.8456 27.9478Z" fill="#8E8F99"/>
<path d="M51.4663 35.6769C51.5978 34.234 51.891 32.8067 52.3415 31.4169C49.3205 34.6211 47.491 38.5971 47.1104 42.7859C47.0738 43.1814 47.0538 43.5768 47.0438 43.9843C48.4648 43.3701 50.1186 42.6032 51.8557 41.7015C51.4124 39.7197 51.2813 37.6916 51.4663 35.6769Z" fill="#8E8F99"/>
<path d="M52.4612 35.7519C52.2947 37.5746 52.3988 39.4092 52.7707 41.2072C59.6058 37.5254 67.2861 31.8363 66.99 24.961V24.3618C62.1066 24.8537 57.5377 26.7756 53.9853 29.8321C53.1536 31.7263 52.6399 33.7214 52.4612 35.7519Z" fill="#8E8F99"/>
</g>
<defs>
<filter id="filter0_dd_544602_156" x="0" y="0.766724" width="71" height="53.0001" filterUnits="userSpaceOnUse" color-interpolation-filters="sRGB">
<feFlood flood-opacity="0" result="BackgroundImageFix"/>
<feColorMatrix in="SourceAlpha" type="matrix" values="0 0 0 0 0 0 0 0 0 0 0 0 0 0 0 0 0 0 127 0" result="hardAlpha"/>
<feOffset dy="4"/>
<feGaussianBlur stdDeviation="2"/>
<feComposite in2="hardAlpha" operator="out"/>
<feColorMatrix type="matrix" values="0 0 0 0 0 0 0 0 0 0 0 0 0 0 0 0 0 0 0.25 0"/>
<feBlend mode="normal" in2="BackgroundImageFix" result="effect1_dropShadow_544602_156"/>
<feColorMatrix in="SourceAlpha" type="matrix" values="0 0 0 0 0 0 0 0 0 0 0 0 0 0 0 0 0 0 127 0" result="hardAlpha"/>
<feOffset dy="4"/>
<feGaussianBlur stdDeviation="2"/>
<feComposite in2="hardAlpha" operator="out"/>
<feColorMatrix type="matrix" values="0 0 0 0 0 0 0 0 0 0 0 0 0 0 0 0 0 0 0.25 0"/>
<feBlend mode="normal" in2="effect1_dropShadow_544602_156" result="effect2_dropShadow_544602_156"/>
<feBlend mode="normal" in="SourceGraphic" in2="effect2_dropShadow_544602_156" result="shape"/>
</filter>
</defs>
</svg>
